<svg xmlns="http://www.w3.org/2000/svg" xmlns:xlink="http://www.w3.org/1999/xlink" width="150" zoomAndPan="magnify" viewBox="0 0 112.5 37.5" height="50" preserveAspectRatio="xMidYMid meet" version="1.0"><defs><g/><clipPath id="970e6563a1"><path d="M 41.667969 5 L 65 5 L 65 37.007812 L 41.667969 37.007812 Z M 41.667969 5 " clip-rule="nonzero"/></clipPath><clipPath id="f1fd0beace"><path d="M 56 0 L 79.320312 0 L 79.320312 32 L 56 32 Z M 56 0 " clip-rule="nonzero"/></clipPath></defs><g clip-path="url(#970e6563a1)"><path fill="#ffffff" d="M 41.6875 38.832031 C 42.769531 37.105469 43.855469 35.382812 44.941406 33.65625 L 46.566406 31.074219 L 51.476562 23.328125 L 54.546875 18.492188 L 50.59375 12.6875 L 49.550781 11.160156 C 49.203125 10.652344 48.855469 10.144531 48.507812 9.636719 L 46.402344 6.597656 L 45.554688 5.371094 L 56.765625 5.292969 L 57.003906 5.714844 C 57.347656 6.335938 57.6875 6.957031 58.027344 7.578125 L 58.535156 8.515625 L 59.039062 9.449219 L 60.039062 11.324219 L 60.550781 12.292969 C 60.742188 11.996094 60.9375 11.703125 61.132812 11.410156 L 61.730469 10.515625 L 62.933594 8.742188 L 63.542969 7.859375 C 63.953125 7.269531 64.367188 6.6875 64.789062 6.105469 C 64.816406 6.054688 64.855469 6.046875 64.90625 6.074219 C 64.957031 6.105469 64.96875 6.144531 64.9375 6.195312 C 64.632812 6.839844 64.320312 7.484375 63.996094 8.125 L 63.515625 9.082031 L 63.023438 10.039062 L 62.53125 10.992188 L 62.035156 11.941406 C 61.699219 12.574219 61.363281 13.207031 61.027344 13.835938 L 60.535156 14.742188 L 59.953125 13.828125 C 59.570312 13.230469 59.199219 12.628906 58.824219 12.027344 L 57.703125 10.222656 L 57.148438 9.3125 L 56.875 8.863281 L 56.597656 8.410156 C 56.320312 7.949219 56.042969 7.492188 55.765625 7.03125 C 55.546875 7.03125 48.84375 7.003906 48.578125 7 L 49.730469 8.832031 C 50.054688 9.351562 50.390625 9.867188 50.71875 10.390625 L 51.714844 11.945312 L 55.699219 18.167969 L 55.90625 18.492188 L 55.699219 18.792969 L 52.246094 23.835938 L 48.78125 28.875 L 47.050781 31.390625 L 45.3125 33.90625 C 44.15625 35.585938 42.996094 37.257812 41.832031 38.929688 C 41.800781 38.976562 41.761719 38.984375 41.710938 38.953125 C 41.664062 38.921875 41.65625 38.882812 41.6875 38.835938 Z M 41.6875 38.832031 " fill-opacity="1" fill-rule="nonzero"/></g><g clip-path="url(#f1fd0beace)"><path fill="#ffffff" d="M 56.984375 28.839844 L 57.46875 27.878906 L 57.957031 26.921875 L 58.449219 25.96875 L 58.949219 25.019531 C 59.285156 24.386719 59.617188 23.757812 59.957031 23.128906 L 60.445312 22.21875 L 61.03125 23.136719 C 61.410156 23.734375 61.78125 24.335938 62.160156 24.9375 L 63.277344 26.742188 L 64.109375 28.101562 L 64.382812 28.550781 C 64.660156 29.011719 64.9375 29.472656 65.210938 29.933594 C 65.429688 29.933594 72.136719 29.957031 72.402344 29.964844 L 71.253906 28.132812 C 70.925781 27.613281 70.59375 27.09375 70.261719 26.574219 L 69.265625 25.019531 L 65.28125 18.792969 L 65.074219 18.46875 L 65.28125 18.167969 L 68.738281 13.136719 L 72.199219 8.109375 L 73.929688 5.597656 L 75.667969 3.089844 C 76.824219 1.414062 77.984375 -0.253906 79.152344 -1.921875 C 79.183594 -1.96875 79.222656 -1.976562 79.265625 -1.949219 C 79.316406 -1.917969 79.324219 -1.878906 79.292969 -1.828125 C 78.210938 -0.105469 77.125 1.617188 76.042969 3.335938 L 74.414062 5.917969 L 72.78125 8.496094 L 69.507812 13.648438 L 66.4375 18.472656 L 70.386719 24.277344 L 71.429688 25.804688 C 71.777344 26.3125 72.121094 26.820312 72.472656 27.328125 L 74.578125 30.367188 L 75.425781 31.59375 L 64.210938 31.667969 L 63.976562 31.242188 C 63.628906 30.625 63.289062 30.003906 62.949219 29.382812 L 62.695312 28.914062 L 62.441406 28.449219 L 61.9375 27.511719 L 60.941406 25.636719 L 60.433594 24.671875 L 59.851562 25.554688 L 59.253906 26.445312 L 58.652344 27.335938 L 58.050781 28.222656 L 57.4375 29.105469 C 57.03125 29.691406 56.617188 30.277344 56.195312 30.855469 C 56.164062 30.898438 56.125 30.90625 56.082031 30.878906 C 56.035156 30.851562 56.027344 30.816406 56.046875 30.769531 C 56.351562 30.125 56.664062 29.480469 56.984375 28.839844 Z M 56.984375 28.839844 " fill-opacity="1" fill-rule="nonzero"/></g><g fill="#ffffff" fill-opacity="1"><g transform="translate(4.758826, 26.677608)"><g><path d="M 2.25 -12.640625 L 0.734375 -13 L 0.953125 -14.25 L 6.828125 -14.25 C 8.410156 -14.25 9.632812 -13.921875 10.5 -13.265625 C 11.363281 -12.617188 11.796875 -11.660156 11.796875 -10.390625 C 11.796875 -9.546875 11.59375 -8.820312 11.1875 -8.21875 C 10.789062 -7.625 10.207031 -7.144531 9.4375 -6.78125 L 9.375 -6.578125 L 12.03125 -1.609375 L 13.3125 -1.25 L 13.109375 0 L 9.859375 0 L 6.59375 -6.21875 L 5.40625 -6.21875 L 5.40625 -1.59375 L 6.890625 -1.25 L 6.6875 0 L 0.953125 0 L 0.734375 -1.25 L 2.25 -1.59375 Z M 5.40625 -12.671875 L 5.40625 -7.796875 L 6.171875 -7.796875 C 6.660156 -7.796875 7.085938 -7.816406 7.453125 -7.859375 C 7.816406 -7.910156 8.101562 -7.984375 8.3125 -8.078125 C 8.394531 -8.359375 8.460938 -8.6875 8.515625 -9.0625 C 8.566406 -9.445312 8.59375 -9.828125 8.59375 -10.203125 C 8.59375 -11.160156 8.375 -11.8125 7.9375 -12.15625 C 7.5 -12.5 6.832031 -12.671875 5.9375 -12.671875 Z M 5.40625 -12.671875 "/></g></g></g><g fill="#ffffff" fill-opacity="1"><g transform="translate(18.242447, 26.677608)"><g><path d="M 2.171875 -12.640625 L 0.671875 -13 L 0.890625 -14.25 L 6.609375 -14.25 L 10.515625 -3.921875 L 10.6875 -3.921875 L 14.4375 -14.25 L 20.28125 -14.25 L 20.5 -13 L 19 -12.640625 L 19 -1.59375 L 20.5 -1.25 L 20.28125 0 L 14.546875 0 L 14.34375 -1.25 L 15.84375 -1.59375 L 15.84375 -11.953125 L 15.671875 -11.953125 L 11.21875 0 L 9.046875 0 L 4.453125 -11.953125 L 4.28125 -11.953125 L 4.28125 -1.59375 L 5.78125 -1.25 L 5.5625 0 L 0.890625 0 L 0.671875 -1.25 L 2.171875 -1.59375 Z M 2.171875 -12.640625 "/></g></g></g><g fill="#ffffff" fill-opacity="1"><g transform="translate(39.409942, 26.677608)"><g><path d="M 2.21875 -12.640625 L 0.71875 -13 L 0.921875 -14.25 L 6.671875 -14.25 L 6.875 -13 L 5.375 -12.640625 L 5.375 -1.59375 L 6.875 -1.25 L 6.671875 0 L 0.921875 0 L 0.71875 -1.25 L 2.21875 -1.59375 Z M 2.21875 -12.640625 "/></g></g></g></svg>